<svg width="40" height="40" viewBox="0 0 24 24" fill="none" xmlns="http://www.w3.org/2000/svg">
<path fill-rule="evenodd" clip-rule="evenodd" d="M12.2746 13.8079C11.9866 13.6208 11.7383 13.3787 11.5439 13.0956C11.3494 12.8125 11.2127 12.4938 11.1414 12.1579C11.0701 11.8219 11.0657 11.4752 11.1285 11.1375C11.1912 10.7998 11.3198 10.4778 11.507 10.1899L14.3588 5.80552C14.543 5.51104 14.7839 5.25619 15.0677 5.05584C15.3514 4.85549 15.6721 4.71367 16.0113 4.63864C16.3504 4.56361 16.701 4.55688 17.0428 4.61885C17.3845 4.68082 17.7105 4.81024 18.0017 4.99955C18.2929 5.18887 18.5434 5.43429 18.7387 5.72149C18.934 6.0087 19.0702 6.33193 19.1392 6.67231C19.2082 7.0127 19.2088 7.36343 19.1408 7.70402C19.0728 8.04462 18.9376 8.36826 18.7432 8.65605L15.8926 13.0417C15.5145 13.6231 14.9208 14.0304 14.2423 14.1741C13.5638 14.3178 12.856 14.1861 12.2746 13.8079ZM9.08143 14.0721C8.64248 13.247 8.43266 12.3194 8.47383 11.3857C8.51499 10.4521 8.80563 9.54651 9.31549 8.76328L12.166 4.37894C12.9224 3.21597 14.1097 2.40109 15.4669 2.11357C16.1389 1.97121 16.8324 1.9626 17.5077 2.08823C18.183 2.21387 18.827 2.47129 19.4029 2.8458C19.9787 3.22031 20.4751 3.70457 20.8638 4.27094C21.2525 4.83731 21.5259 5.47469 21.6682 6.14669C21.8106 6.81869 21.8192 7.51215 21.6936 8.18748C21.5679 8.86281 21.3105 9.50679 20.936 10.0826L18.0855 14.467C17.5895 15.2302 16.9028 15.8509 16.0935 16.2675C15.2841 16.6841 14.38 16.8822 13.4706 16.8423C12.5612 16.8024 11.6779 16.5259 10.9082 16.04C10.1384 15.5542 9.50871 14.8758 9.08143 14.0721Z" fill="currentColor"/>
<path fill-rule="evenodd" clip-rule="evenodd" d="M5.8058 18.9593C5.51782 18.7721 5.26953 18.5301 5.0751 18.2469C4.88067 17.9638 4.74392 17.6452 4.67264 17.3092C4.60137 16.9732 4.59697 16.6265 4.6597 16.2888C4.72243 15.9512 4.85107 15.6291 5.03825 15.3412L7.8901 10.9569C8.07424 10.6624 8.3152 10.4075 8.59891 10.2072C8.88261 10.0068 9.20339 9.865 9.5425 9.78997C9.88162 9.71495 10.2323 9.70822 10.574 9.77019C10.9158 9.83215 11.2417 9.96157 11.5329 10.1509C11.8241 10.3402 12.0747 10.5856 12.27 10.8728C12.4653 11.16 12.6014 11.4833 12.6704 11.8236C12.7395 12.164 12.74 12.5148 12.672 12.8554C12.604 13.196 12.4689 13.5196 12.2744 13.8074L9.42389 18.193C9.04571 18.7744 8.45206 19.1818 7.77354 19.3255C7.09502 19.4692 6.38721 19.3374 5.8058 18.9593ZM2.61268 19.2234C2.17373 18.3983 1.96391 17.4707 2.00508 16.5371C2.04624 15.6034 2.33688 14.6978 2.84674 13.9146L5.69728 9.53158C6.0717 8.95574 6.55588 8.45928 7.12217 8.07056C7.68845 7.68183 8.32576 7.40845 8.9977 7.26602C9.66965 7.1236 10.3631 7.11491 11.0384 7.24047C11.7137 7.36603 12.3576 7.62336 12.9335 7.99779C13.5093 8.37221 14.0058 8.85639 14.3945 9.42268C14.7832 9.98897 15.0566 10.6263 15.199 11.2982C15.3414 11.9702 15.3501 12.6636 15.2246 13.3389C15.099 14.0142 14.8417 14.6581 14.4672 15.234L11.6167 19.6183C11.1207 20.3816 10.4341 21.0022 9.62472 21.4188C8.81535 21.8354 7.91128 22.0335 7.00186 21.9937C6.09245 21.9538 5.20919 21.6772 4.4394 21.1914C3.66962 20.7055 3.03996 20.0272 2.61268 19.2234Z" fill="currentColor"/>
</svg>
