<svg width="40" height="40" viewBox="0 0 24 24" fill="none" xmlns="http://www.w3.org/2000/svg">
<path d="M6.40705 2C5.50137 2.00596 4.63482 2.36992 3.99652 3.01245C3.35821 3.65498 2.99998 4.52392 3 5.42961H17.2099C18.1156 5.42365 18.9821 5.05969 19.6204 4.41716C20.2587 3.77463 20.617 2.90569 20.617 2H6.40705Z" fill="currentColor"/>
<path d="M13.514 17.3404V9.1454C13.5076 8.15832 13.1112 7.21381 12.4113 6.51777C11.7114 5.82174 10.7647 5.43062 9.77758 5.42969V18.5263C9.77214 18.9922 9.86168 19.4543 10.0408 19.8844C10.2198 20.3146 10.4847 20.7037 10.8191 21.0281C11.1536 21.3525 11.5506 21.6054 11.986 21.7713C12.4214 21.9371 12.8861 22.0125 13.3516 21.9929C14.2591 22.0547 15.1592 21.7938 15.8931 21.2564C13.7361 21.0281 13.5149 19.7284 13.5149 17.3404H13.514Z" fill="currentColor"/>
</svg>
