<svg width="40" height="40" viewBox="0 0 24 24" fill="none" xmlns="http://www.w3.org/2000/svg">
<path fill-rule="evenodd" clip-rule="evenodd" d="M12.4782 20.6571L11.1362 19.9131L12.479 20.6566L12.4782 20.6571Z" fill="url(#paint0_linear_5933_10204)"/>
<path d="M12.4414 3.70142L13.8658 4.4869L13.8902 6.09626V18.2494L15.5322 19.1744L17.1742 18.2535V14.7776L20.1318 13.1424V11.1571L17.1742 9.26756V6.10229L15.5206 5.1703L13.8902 6.09626L13.8658 4.4869L12.4414 3.70142L15.5376 2L19.9444 4.48369V7.75007L22.902 9.63959V14.7763L19.9444 16.4115V19.876L15.5378 22.3534L12.4782 20.6571L12.479 20.6566L11.1362 19.9131L11.0824 19.8833L11.0911 18.2494V6.09626L9.40911 5.1927L7.74728 6.11866V9.59451L4.77022 11.2297V13.2098L7.74728 15.0993V18.2646L9.39965 19.1898L11.0911 18.2494L11.0824 19.8833L11.1362 19.9131L12.4782 20.6571L9.42492 22.3789L4.97706 19.8884V16.6221L2 14.7326V9.59065L4.97706 7.95549V4.49097L9.40219 2.02535L12.4414 3.70142Z" fill="currentColor"/>
<defs>
<linearGradient id="paint0_linear_5933_10204" x1="10.7498" y1="7.90545" x2="-2.07482" y2="14.807" gradientUnits="userSpaceOnUse">
<stop stop-color="#7B61FF"/>
<stop offset="1" stop-color="#533DC4"/>
</linearGradient>
</defs>
</svg>
