<svg width="40" height="40" viewBox="0 0 24 24" fill="none" xmlns="http://www.w3.org/2000/svg">
<path d="M16.1596 11.94C16.1605 11.1666 15.9096 10.4139 15.4448 9.79582L17.2384 8.01576C17.5891 8.16164 17.9644 8.23944 18.3442 8.24501C18.6878 8.2558 19.0301 8.19877 19.3517 8.07717C19.6732 7.95557 19.9676 7.7718 20.2181 7.53635C20.4686 7.3009 20.6702 7.01839 20.8115 6.70498C20.9527 6.39156 21.0308 6.05338 21.0412 5.70977C21.0412 4.99447 20.7571 4.30846 20.2513 3.80266C19.7455 3.29687 19.0595 3.01271 18.3442 3.01271C17.6289 3.01271 16.9429 3.29687 16.4371 3.80266C15.9313 4.30846 15.6471 4.99447 15.6471 5.70977C15.6488 6.12691 15.7605 6.53623 15.9708 6.89648L14.1772 8.69002C13.5468 8.33714 12.8365 8.15145 12.114 8.15061C11.2219 8.13832 10.3508 8.42125 9.63618 8.95537C8.92158 9.48949 8.40358 10.2448 8.16278 11.1039H7.23229C7.02863 10.6003 6.67763 10.1699 6.22526 9.86914C5.7729 9.56836 5.24025 9.4112 4.69706 9.41823C4.00538 9.39639 3.33323 9.64949 2.82774 10.1221C2.32226 10.5947 2.02463 11.2484 2 11.94C2.01046 12.2836 2.08854 12.6218 2.22978 12.9352C2.37101 13.2486 2.57263 13.5311 2.82311 13.7666C3.07359 14.002 3.36802 14.1858 3.68956 14.3074C4.0111 14.429 4.35346 14.486 4.69706 14.4752C5.24025 14.4822 5.7729 14.3251 6.22526 14.0243C6.67763 13.7235 7.02863 13.2932 7.23229 12.7896H8.16278C8.40358 13.6486 8.92158 14.404 9.63618 14.9381C10.3508 15.4722 11.2219 15.7551 12.114 15.7428C12.6294 15.759 13.1429 15.6735 13.6252 15.4911C14.1075 15.3087 14.5492 15.033 14.9249 14.6798C15.3006 14.3267 15.603 13.9029 15.8149 13.4328C16.0267 12.9627 16.1439 12.4554 16.1596 11.94Z" fill="currentColor"/>
<path d="M4.69706 7.05829C5.0777 7.06076 5.45456 6.98264 5.80285 6.82904L7.83242 8.8932C8.01332 9.07718 8.31487 9.05578 8.48889 8.86529C8.64911 8.68992 8.82154 8.52612 9.00488 8.37513C9.20993 8.20627 9.24241 7.89419 9.05513 7.70582L7.07047 5.70976C7.28076 5.34951 7.3924 4.94019 7.39412 4.52306C7.36949 3.83147 7.07186 3.17782 6.56637 2.70519C6.06089 2.23256 5.38874 1.97946 4.69706 2.0013C4.00538 1.97946 3.33323 2.23256 2.82774 2.70519C2.32226 3.17782 2.02463 3.83147 2 4.52306C2.01046 4.86666 2.08854 5.20484 2.22978 5.51826C2.37101 5.83167 2.57263 6.11418 2.82311 6.34963C3.07359 6.58508 3.36802 6.76886 3.68956 6.89045C4.0111 7.01205 4.35346 7.06908 4.69706 7.05829ZM19.5309 16.8351C19.1502 16.8327 18.7734 16.9108 18.4251 17.0644L16.3871 14.98C16.2093 14.7982 15.913 14.8153 15.7372 14.9991C15.5777 15.166 15.4068 15.3218 15.2259 15.4652C15.0145 15.6328 14.9786 15.9509 15.1694 16.1416L17.144 18.1162C16.9378 18.4776 16.8308 18.8869 16.8338 19.3029C16.8338 20.0182 17.118 20.7043 17.6238 21.21C18.1296 21.7158 18.8156 22 19.5309 22C20.2462 22 20.9322 21.7158 21.438 21.21C21.9438 20.7043 22.2279 20.0182 22.2279 19.3029C22.1896 18.6209 21.886 17.9809 21.382 17.5198C20.878 17.0587 20.2136 16.8129 19.5309 16.8351Z" fill="currentColor"/>
</svg>
