<svg width="40" height="40" viewBox="0 0 24 24" fill="none" xmlns="http://www.w3.org/2000/svg">
<path d="M5.66406 6.47656C5.48047 6.51953 5.59766 6.51172 5.44531 6.53125C4.79297 6.67187 5.27734 6.79687 5.66406 6.47656ZM17.1367 6.73828C17.1836 6.70703 17.3477 6.54688 16.8359 6.39063C16.8672 6.55078 16.7305 6.53516 16.7305 6.625C17.1094 6.96875 17.2656 7.56641 17.75 7.69141C17.8438 7.26172 17.3203 7.05078 17.1367 6.73828ZM5.31641 6.35156C5.375 6.69922 5.63672 5.98438 5.64062 5.73047C5.53906 5.78906 5.4375 5.84766 5.33203 5.89453C5.57813 6.01953 5.36328 6.15234 5.09766 6.35156C4.55859 7.02344 5.60156 5.82813 5.31641 6.35156ZM12 2C6.47656 2 2 6.47656 2 12C2 17.5195 6.47656 22 12 22C17.5234 22 22 17.5195 22 12C22 6.47656 17.5234 2 12 2ZM12.2656 5.35156L12.3125 5.36719C12.125 5.60937 13.2891 6.31641 12.4531 6.375C11.6719 6.59766 12.7812 6.17187 12.1758 6.24609C12.4961 5.80078 11.9219 5.79297 12.2656 5.35156ZM7.52344 5.99219C7.24219 5.75781 6.35937 6.3125 6.66797 6.17969C7.43359 5.87891 6.71875 6.21094 6.89844 6.57031C6.73438 6.91016 6.84375 6.23437 6.4375 6.63672C6.14453 6.70312 5.42578 7.36719 5.51562 7.16406C5.49219 7.48047 4.66016 7.85547 4.54687 8.38281C4.27344 9.11328 4.48047 8.35547 4.42969 8.07031C4.03906 7.57422 3.32813 8.91016 3.53906 9.4375C3.89453 8.8125 3.86719 9.37109 3.60938 9.64844C3.87109 10.1289 3.37109 10.7539 3.86719 11.1094C4.08594 11.1602 4.52344 10.375 4.33203 11.1914C4.46484 10.4844 4.69922 11.3594 5.07813 11.1641C5.10156 11.5352 5.33203 11.3633 5.38281 11.8125C6.01562 11.7656 6.59375 12.8359 5.83984 13.0391C5.95313 13.0078 6.17578 13.207 6.43359 13.0547C6.87109 13.4023 8.02344 13.4453 8.05469 14.3047C7.26172 14.6836 7.85937 15.7227 7.17187 16.0937C6.38281 15.9766 6.90234 17.0664 6.57031 16.9414C6.70313 17.7266 5.77344 16.8398 6.13281 17.2734C6.79297 17.6797 5.84375 17.5977 6.14062 17.8945C5.80859 17.8242 6.34766 18.5117 6.4375 18.7656C6.91406 19.5391 6.02734 18.5938 5.76563 18.3359C5.51563 17.8359 4.92578 16.8789 4.76172 16.0937C4.66797 14.9531 3.78516 14.1875 3.58203 13.0742C3.37891 12.4531 4.14062 11.457 3.73047 11.1094C3.375 10.832 3.51953 9.88281 3.30859 9.38281C3.83594 7.09766 5.51172 5.17188 7.52344 4.03125C7.31641 4.18359 8.70703 3.63672 8.54688 3.76953C8.50391 3.86719 9.35938 3.39844 9.875 3.32812C9.82031 3.33594 8.53516 3.79688 8.89062 3.73438C8.33984 4.00391 8.83594 3.85156 9.10938 3.71484C8.5625 4.11719 8.14063 4.00391 7.51953 4.35938C6.89453 4.52344 7.02344 5.17187 6.57812 5.49609C6.83984 5.54297 7.49609 4.82031 7.87891 4.56641C8.75781 4.14062 7.43359 5.33984 8.26953 4.82422C7.98828 5.08594 8.04687 5.50391 7.875 5.62109C7.78906 5.59766 8.21484 5.82422 7.52344 5.99219ZM8.89062 4.19531C8.80078 4.31641 8.67578 4.57813 8.60156 4.41797C8.5 4.46875 8.46094 4.6875 8.26953 4.51172C8.38281 4.42969 8.5 4.23437 8.27734 4.35547C8.37891 4.24609 9.28516 3.9375 9.23437 3.82031C9.39453 3.71875 9.37891 3.66797 9.19531 3.73047C9.10156 3.69922 9.41797 3.43359 9.83984 3.39844C9.89844 3.39844 9.92188 3.4375 9.81641 3.42578C9.17969 3.62109 9.45313 3.56641 9.88281 3.42578C9.71875 3.51953 9.60547 3.54688 9.57812 3.58984C10.0078 3.43359 9.55469 3.70312 9.65234 3.68359C9.53125 3.74609 9.67187 3.76563 9.4375 3.85547C9.48047 3.82031 9.05469 4.10937 9.30859 4.02344C9.0625 4.25781 8.95312 4.26172 8.89062 4.19531ZM9.26562 4.75391C9.27344 4.37891 9.8125 4.14062 9.74609 4.12109C10.4102 3.80859 9.51563 4.13281 10.0391 3.85156C10.2344 3.83203 10.6484 3.20703 11.2227 3.16797C11.8555 2.97656 11.5625 3.17969 12.0312 3L11.9375 3.07813C11.8555 3.08984 11.957 3.23438 11.6602 3.45313C11.6289 3.79297 11.0938 3.63672 11.3594 4C11.1875 3.75391 10.9297 3.99219 11.2539 4.01562C10.9062 4.28125 10.0977 4.32813 9.71094 4.76953C9.46094 5.12891 9.23047 5.01562 9.26562 4.75391ZM12.043 6.00391C11.7773 6.64453 11.5195 5.91016 11.9883 5.79297C12.1055 5.85547 12.1523 5.875 12.043 6.00391ZM11.043 4.72266C10.9648 4.43359 11.0273 4.58594 11.4922 4.44922C11.8125 4.67969 11.207 4.83203 11.043 4.72266ZM18.3164 16.1875C17.9492 15.5547 18.7617 14.9687 19.0352 14.4375C19 15.0586 18.9219 15.6719 18.3164 16.1875ZM19.6992 8.95703C19.3008 8.98828 18.9414 9.08203 18.582 8.85547C17.7539 7.94922 18.7344 9.87891 19.0078 9.08984C19.9922 9.46484 18.9922 11.082 18.3711 10.9141C18.0234 10.1641 17.5937 9.33984 16.8359 8.97266C17.418 9.61719 17.707 10.4102 18.332 10.9922C18.375 11.8047 19.1992 10.6953 19.1484 11.3242C19.2266 12.4062 17.9258 13.0547 18.1523 14.1406C18.6367 15.1289 17.2188 15.3086 17.3789 16.1953C16.8086 16.832 16.1992 17.6914 15.1758 17.5547C15.1758 17.0156 14.9023 16.5586 14.8398 16.0039C14.2852 15.3008 15.4258 14.5469 14.7188 13.8125C13.9023 13.6289 14.8867 12.5039 14.0469 12.6094C13.543 12.1055 12.8047 12.5937 12.082 12.5977C11.1758 12.6836 10.2422 11.4844 10.6445 10.6367C10.3242 9.75391 11.6602 9.49609 11.6953 8.71875C12.3359 8.18359 13.2461 8.25 14.1133 8.125C14.0508 8.74609 14.707 8.75 15.2031 8.95703C15.4805 8.28516 16.3437 9.06641 16.9336 8.64062C17.1367 7.64844 16.3594 8.24609 15.9141 7.92969C15.375 7.14063 17.0664 7.52344 16.8906 7.10938C16.2344 7.10547 16.6055 6.30078 16.1406 6.75C16.5586 6.82422 16.0664 7.15234 16.0781 6.77734C15.4453 6.59375 16.0547 7.49609 15.7344 7.58203C15.2461 7.37891 15.4766 7.8125 15.5273 7.87891C15.3164 8.33594 15.0586 7.20703 14.4609 7.23828C13.8672 6.69531 14.2266 7.48437 14.7422 7.61328C14.6328 7.64453 14.8047 8.09375 14.668 7.90234C14.2422 7.31641 13.4336 6.92578 12.9531 7.64453C12.9023 8.31641 11.5352 8.50781 11.7539 7.72266C11.4336 6.91016 12.7461 7.69922 12.625 7.05078C11.7812 6.49219 12.8555 6.67187 13.1406 6.14844C13.7891 6.16797 13.168 5.61719 13.4727 5.45703C13.4414 6.05469 13.9688 5.94141 14.3867 5.82812C14.2852 5.48437 14.6367 5.49609 14.4219 5.21094C15.3906 4.82422 13.6836 5.39062 14.0273 4.54297C13.6094 4.25391 13.8516 5.17969 14.0273 5.27734C14.0391 5.5625 13.7969 5.91406 13.4648 5.31641C12.9805 5.63281 13.0313 4.99609 13 5.0625C12.9453 4.81641 13.3672 4.80469 13.3711 4.375C13.3359 4.10156 13.3437 3.95703 13.5391 3.94141C13.5547 3.98047 14.3398 3.99219 14.6172 4.31641C13.8594 4.16406 14.5039 4.44141 14.8437 4.59766C14.4805 4.3125 14.9883 4.59766 14.6914 4.27344C14.8086 4.29688 14.3672 3.82812 14.8203 4.23828C14.5742 3.94531 15.3008 4.03125 14.8711 3.8125C15.5 3.98828 15.1289 3.82813 14.7578 3.66797C13.7344 3.05859 16.5664 4.49219 15.4102 3.85547C16.1484 4.01562 13.832 3.28516 14.8867 3.60547C14.4844 3.42969 14.875 3.52734 15.2383 3.64062C14.5859 3.4375 13.6094 3.05859 13.6484 3.04297C13.875 3.05859 14.0977 3.10937 14.3125 3.17188C14.9805 3.37109 14.1211 3.125 14.3047 3.12891C16.6016 3.71875 18.6133 5.25781 19.8359 7.26953C20.1211 7.57031 20.8984 9.55859 20.4922 8.67578C20.6758 9.37891 20.7031 10.1367 20.8008 10.8555C20.5977 10.6289 20.3711 9.79297 20.1758 9.32813C20.0937 9.50781 20 9.07422 19.6992 8.95703Z" fill="currentColor"/>
</svg>
