<svg width="40" height="40" viewBox="0 0 24 24" fill="none" xmlns="http://www.w3.org/2000/svg">
<path d="M12.6897 3.00005C12.8625 3.00038 13.0354 3.00434 13.208 3.01192C13.5791 3.07788 13.7504 3.24033 13.8434 3.42626C13.9459 3.63126 13.9419 3.90711 13.8276 4.1524C13.7133 4.39781 13.5035 4.59844 13.2106 4.67336C12.985 4.73108 12.6939 4.72136 12.3299 4.55901C12.1315 4.47051 11.8898 4.51928 11.7728 4.70239C11.6558 4.88544 11.7084 5.13157 11.9037 5.22666C12.4462 5.49076 12.9635 5.54806 13.4053 5.43499C13.9394 5.29831 14.3358 4.92467 14.5405 4.4852C14.6272 4.29926 14.6821 4.09885 14.6995 3.8954C14.7275 3.56803 15.0075 3.2257 15.3278 3.29895C16.8257 3.64152 18.1779 4.26392 19.255 5.09257C19.2736 5.10683 19.2909 5.12269 19.3064 5.14024C19.6972 5.58412 19.7327 6.09375 19.5552 6.44396C19.3808 6.78774 19.0039 7.05195 18.2962 6.92937C18.0823 6.89232 17.8615 7.00222 17.7958 7.20912C17.73 7.41634 17.8448 7.64077 18.0585 7.68078C19.0868 7.87331 19.9129 7.47769 20.2562 6.80042C20.3618 6.59212 20.6741 6.50864 20.8071 6.7006C20.8656 6.78493 20.9217 6.87036 20.9755 6.95691C20.9764 6.95834 20.9758 6.96022 20.9743 6.96094C20.9729 6.96159 20.9724 6.96325 20.973 6.96464C21.3345 7.78901 21.3426 8.36017 21.1982 8.73145C21.0535 9.10315 20.7505 9.3393 20.2839 9.46946C19.3507 9.7296 17.8396 9.4157 16.7755 8.62099C16.3201 8.28086 15.8883 7.45593 15.8507 6.81617C15.832 6.49625 15.8997 6.24351 16.0336 6.08212C16.1202 5.97769 16.2405 5.89027 16.4349 5.84281C16.6459 5.79126 16.8273 5.62838 16.8295 5.41111C16.8317 5.19396 16.6562 5.01177 16.4416 5.04512C16.0114 5.11197 15.6612 5.29912 15.4285 5.57967C15.1286 5.94127 15.0387 6.40692 15.0654 6.86222C15.1189 7.77286 15.5956 8.72164 16.3046 9.25111C17.5622 10.1904 19.2233 10.5816 20.4943 10.2272C20.6833 10.1745 20.8653 10.102 21.0342 10.0094C21.3826 9.81857 22.0001 9.96521 22 10.3624C21.9996 11.8037 21.4523 13.1067 20.5799 14.0723C20.4617 14.2031 20.242 14.0709 20.2609 13.8957C20.2747 13.7673 20.2794 13.6389 20.2747 13.5119C20.2524 12.9089 20.0187 12.3187 19.5498 11.911C19.1653 11.5766 18.6342 11.3836 17.9989 11.3849C17.9566 11.3849 17.9133 11.3856 17.87 11.3874C17.7016 11.3946 17.5839 11.5492 17.6059 11.7163L17.6175 11.804C17.6458 12.0193 17.8438 12.1662 18.061 12.1696C18.5015 12.1767 18.8118 12.3109 19.0342 12.5043C19.3175 12.7507 19.4738 13.1195 19.4894 13.5409C19.5205 14.3829 18.9825 15.3659 17.8224 15.6526C17.8203 15.6531 17.8189 15.6552 17.8193 15.6574C17.8196 15.6597 17.8182 15.6618 17.8159 15.6622C16.6723 15.8795 15.3965 15.6762 14.1156 14.8945C14.1139 14.8936 14.1122 14.8927 14.1106 14.8915C13.8452 14.7048 13.7021 14.522 13.6315 14.3644C13.5479 14.1778 13.5497 14.0153 13.6092 13.8408C13.7281 13.4918 14.1539 13.1331 14.5445 13.0331C15.176 12.8715 15.5771 13.0936 15.7652 13.3581C15.8702 13.5057 15.9202 13.6518 15.8933 13.7914C15.8523 14.0047 15.7826 14.2468 15.9159 14.4183C16.0492 14.5897 16.3034 14.6232 16.4276 14.4451C16.7543 13.9766 16.7225 13.3468 16.4059 12.9016C16.1157 12.4938 15.6067 12.2143 14.993 12.1965C14.9671 12.1956 14.9412 12.1951 14.9154 12.1952C14.7341 12.1965 14.5453 12.2214 14.3497 12.2714C13.697 12.4385 13.0936 12.9145 12.8646 13.5869C12.7832 13.8271 12.5041 14.0045 12.2745 13.8968C11.7265 13.6398 11.1597 13.4114 10.5848 13.2291C9.31542 12.649 8.76507 11.6321 8.78654 10.7758C8.80578 10.0101 9.22815 9.35213 10.182 9.12889C10.3935 9.07938 10.553 8.89035 10.5315 8.67417C10.5101 8.45807 10.3165 8.29763 10.1043 8.34381C8.79635 8.62848 8.02912 9.64522 8.00122 10.756C7.99128 11.1526 8.06827 11.5582 8.22968 11.9485C8.37315 12.2954 8.10728 12.7749 7.73206 12.7878C7.68836 12.7893 7.64472 12.7913 7.60114 12.7937C7.25665 12.8126 6.95629 12.4305 6.95491 12.0855C6.95485 12.0698 6.95458 12.0542 6.9541 12.0386C6.92561 11.111 6.13662 10.2456 4.89671 10.2325C4.75633 10.2311 4.65201 10.355 4.66328 10.4949L4.67443 10.6334C4.69188 10.8501 4.88296 11.0059 5.09946 11.0251C5.85592 11.0922 6.15228 11.5702 6.16747 12.0636C6.18482 12.6285 5.80777 13.2608 4.72698 13.3448C3.5357 13.3553 2.68167 12.7092 2.26316 11.7491C1.70288 10.4637 1.96863 8.53655 3.72992 6.77399C3.77065 6.73321 3.84077 6.7571 3.85223 6.81358C3.87425 6.92203 3.90681 7.02817 3.94953 7.13049C4.25472 7.86252 4.96962 8.35663 5.71226 8.49466C6.73664 8.68502 7.57665 8.26958 7.96434 7.63567C8.28897 7.10496 8.27041 6.39019 7.84625 5.89466C7.7048 5.72942 7.45391 5.77982 7.33215 5.96007C7.2105 6.14017 7.28099 6.37655 7.37514 6.57243C7.47167 6.77325 7.43148 6.99963 7.29347 7.22525C7.08439 7.56714 6.6128 7.86324 5.85568 7.72256C5.37975 7.63407 4.84978 7.24562 4.67575 6.82804C4.58862 6.61925 4.57178 6.4129 4.65858 6.17683C4.72909 5.98509 4.87693 5.76581 5.15193 5.53488L5.1598 5.52836C6.30828 4.66279 7.5284 4.03999 8.76497 3.62896C8.76642 3.62848 8.76766 3.63012 8.7668 3.63139C8.48543 4.14579 8.46455 4.72931 8.63786 5.24548C8.98443 6.27786 10.072 7.09126 11.4175 7.0463C11.71 7.03662 11.9883 7.17764 12.2251 7.45281C12.462 7.72799 12.6349 8.13109 12.675 8.56046C12.7479 9.3413 12.4473 10.1947 11.3028 10.6949C11.1038 10.7819 10.9889 11.0012 11.0558 11.2079C11.1227 11.4146 11.346 11.5298 11.5458 11.4444C13.0008 10.8223 13.561 9.5772 13.4593 8.48814C13.4043 7.89986 13.177 7.35317 12.8213 6.93989C12.4656 6.5266 11.9594 6.24098 11.3913 6.2598C10.3794 6.29356 9.60975 5.66693 9.38395 4.9943C9.27105 4.65804 9.28566 4.32343 9.45762 4.00906C9.62123 3.71005 9.94211 3.4143 10.512 3.19529C10.5359 3.18611 10.5608 3.17942 10.586 3.17513C11.2809 3.05668 11.9847 2.9981 12.6897 3.00005ZM8.91251 14.2782C8.69616 14.0126 8.91347 13.6543 9.24994 13.7187C10.773 14.0103 12.3515 14.74 13.7026 15.5654C15.6231 16.7386 17.6255 16.747 19.2531 16.0033C19.6141 15.8383 20.0202 16.1603 19.7964 16.4881C18.7632 18.0013 16.7153 18.2578 14.5946 17.7386C14.3385 17.6424 14.0869 17.4633 13.8723 17.2322C13.6777 17.0224 13.5183 16.7719 13.4124 16.5276C13.3259 16.3281 13.1194 16.1876 12.9061 16.2298C12.6929 16.2719 12.5521 16.4802 12.6257 16.6847C12.7657 17.0735 12.9978 17.4474 13.2949 17.7676C13.6214 18.1195 14.0337 18.4101 14.5074 18.5367C14.6444 18.5734 14.7655 18.6613 14.822 18.7914C15.0647 19.3505 15.2597 19.8798 15.3444 20.263C15.4938 20.939 14.7464 21.1986 14.4117 20.5168C13.6152 18.8946 12.4928 17.4496 11.0915 16.2023C11.0767 16.1891 11.0608 16.1769 11.0441 16.1659C10.2174 15.6188 9.4809 14.976 8.91251 14.2782Z" fill="currentColor"/>
</svg>
