<svg width="156" height="40" viewBox="0 0 156 40" fill="none" xmlns="http://www.w3.org/2000/svg">
<path fill-rule="evenodd" clip-rule="evenodd" d="M22.2515 33.3784L27.0875 36.1055L34.1324 32.1609V26.9874L38.8478 23.9946V15.8503L34.1324 13.2604V7.77295L27.1235 3.86767L22.3096 6.52238L20.0537 7.7665L20.0149 10.3156H24.4484L27.1125 8.88442L29.7447 10.351V15.8564L34.46 18.4463V21.5826L29.7447 24.5754V29.589L27.1275 31.0544L24.4484 29.5648L24.4622 32.1527L24.3769 32.2L22.2502 33.3776L22.2515 33.3784Z" fill="url(#paint0_linear_1984_668)"/>
<path d="M20.0537 7.7665L22.3096 6.52238L17.4057 3.82751L10.4258 7.76142V12.935L5.74121 15.9278V24.0638L10.4258 26.6537V32.1411L17.4053 36.0651L22.2515 33.3784L22.2502 33.3776L24.3769 32.2L24.4622 32.1527L24.4484 29.5648H20.0149L17.4142 31.0299L14.8135 29.5713V24.0659L10.1289 21.476V18.3314L14.8135 15.3386V10.3251L17.4326 8.84894L20.0149 10.3156L20.0537 7.7665Z" fill="url(#paint1_linear_1984_668)"/>
<path d="M20.0149 10.3156V29.5648H24.4484V10.3156H20.0149Z" fill="url(#paint2_linear_1984_668)"/>
<path d="M54.5234 23.811H50.5874L49.9891 25.6216H46.7458L50.792 14.5221H54.3502L58.3806 25.6216H55.1216L54.5234 23.811ZM53.7519 21.4494L52.5554 17.8598L51.3746 21.4494H53.7519Z" fill="url(#paint3_linear_1984_668)"/>
<path d="M62.9642 14.5221V25.6216H59.8784V14.5221H62.9642Z" fill="url(#paint4_linear_1984_668)"/>
<path d="M73.5735 14.5221V16.9782H70.6137V25.6216H67.5279V16.9782H64.5995V14.5221H73.5735Z" fill="url(#paint5_linear_1984_668)"/>
<defs>
<linearGradient id="paint0_linear_1984_668" x1="24.9891" y1="13.1811" x2="45.3019" y2="24.1125" gradientUnits="userSpaceOnUse">
<stop stop-color="#7B61FF"/>
<stop offset="1" stop-color="#533DC4"/>
</linearGradient>
<linearGradient id="paint1_linear_1984_668" x1="7.57949" y1="14.1003" x2="19.6364" y2="27.0223" gradientUnits="userSpaceOnUse">
<stop stop-color="#6AFFAF"/>
<stop offset="1" stop-color="#5CFEEB"/>
</linearGradient>
<linearGradient id="paint2_linear_1984_668" x1="22.2763" y1="10.3279" x2="22.2762" y2="29.6051" gradientUnits="userSpaceOnUse">
<stop offset="0.00520833" stop-color="#7C62FF"/>
<stop offset="1" stop-color="#5DFEEB"/>
</linearGradient>
<linearGradient id="paint3_linear_1984_668" x1="46.8949" y1="20.296" x2="149.758" y2="20.296" gradientUnits="userSpaceOnUse">
<stop stop-color="#67FABC"/>
<stop offset="1" stop-color="#735AF3"/>
</linearGradient>
<linearGradient id="paint4_linear_1984_668" x1="46.8949" y1="20.296" x2="149.758" y2="20.296" gradientUnits="userSpaceOnUse">
<stop stop-color="#67FABC"/>
<stop offset="1" stop-color="#735AF3"/>
</linearGradient>
<linearGradient id="paint5_linear_1984_668" x1="46.8949" y1="20.296" x2="149.758" y2="20.296" gradientUnits="userSpaceOnUse">
<stop stop-color="#67FABC"/>
<stop offset="1" stop-color="#735AF3"/>
</linearGradient>
<linearGradient id="paint6_linear_1984_668" x1="46.8949" y1="20.296" x2="149.758" y2="20.296" gradientUnits="userSpaceOnUse">
<stop stop-color="#67FABC"/>
<stop offset="1" stop-color="#735AF3"/>
</linearGradient>
<linearGradient id="paint7_linear_1984_668" x1="46.8949" y1="20.296" x2="149.758" y2="20.296" gradientUnits="userSpaceOnUse">
<stop stop-color="#67FABC"/>
<stop offset="1" stop-color="#735AF3"/>
</linearGradient>
<linearGradient id="paint8_linear_1984_668" x1="46.8949" y1="20.296" x2="149.758" y2="20.296" gradientUnits="userSpaceOnUse">
<stop stop-color="#67FABC"/>
<stop offset="1" stop-color="#735AF3"/>
</linearGradient>
<linearGradient id="paint9_linear_1984_668" x1="46.8949" y1="20.296" x2="149.758" y2="20.296" gradientUnits="userSpaceOnUse">
<stop stop-color="#67FABC"/>
<stop offset="1" stop-color="#735AF3"/>
</linearGradient>
<linearGradient id="paint10_linear_1984_668" x1="46.8949" y1="20.296" x2="149.758" y2="20.296" gradientUnits="userSpaceOnUse">
<stop stop-color="#67FABC"/>
<stop offset="1" stop-color="#735AF3"/>
</linearGradient>
<linearGradient id="paint11_linear_1984_668" x1="46.8949" y1="20.296" x2="149.758" y2="20.296" gradientUnits="userSpaceOnUse">
<stop stop-color="#67FABC"/>
<stop offset="1" stop-color="#735AF3"/>
</linearGradient>
<linearGradient id="paint12_linear_1984_668" x1="46.8949" y1="20.296" x2="149.758" y2="20.296" gradientUnits="userSpaceOnUse">
<stop stop-color="#67FABC"/>
<stop offset="1" stop-color="#735AF3"/>
</linearGradient>
<linearGradient id="paint13_linear_1984_668" x1="46.8949" y1="20.296" x2="149.758" y2="20.296" gradientUnits="userSpaceOnUse">
<stop stop-color="#67FABC"/>
<stop offset="1" stop-color="#735AF3"/>
</linearGradient>
</defs>
</svg>
